  0
SECTION
  2
HEADER
  9
$ACADVER
  1
AC1009
  9
$EXTMIN
 10
0.0
 20
0.0
 30
0.0
  9
$EXTMAX
 10
1000.0
 20
1000.0
 30
0.0
  9
$FILLMODE
 70
 0
  9
$SPLFRAME
 70
 1
  0
ENDSEC
  0
SECTION
  2
TABLES
  0
TABLE
  2
LAYER
 70
1
  0
LAYER
  2
0
 70
     0
 62
     7
  6
CONTINUOUS
  0
ENDTAB
  0
ENDSEC
  0
SECTION
  2
ENTITIES
  0
LINE
  8
0
 62
     0
 10
282.847
 20
114.558
 30
0.0
 11
283.082
 21
114.548
 31
0.0
  0
LINE
  8
0
 62
     0
 10
283.082
 20
114.548
 30
0.0
 11
283.315
 21
114.522
 31
0.0
  0
LINE
  8
0
 62
     0
 10
283.315
 20
114.522
 30
0.0
 11
283.547
 21
114.475
 31
0.0
  0
LINE
  8
0
 62
     0
 10
283.547
 20
114.475
 30
0.0
 11
283.774
 21
114.411
 31
0.0
  0
LINE
  8
0
 62
     0
 10
283.774
 20
114.411
 30
0.0
 11
283.994
 21
114.329
 31
0.0
  0
LINE
  8
0
 62
     0
 10
283.994
 20
114.329
 30
0.0
 11
284.208
 21
114.231
 31
0.0
  0
LINE
  8
0
 62
     0
 10
284.208
 20
114.231
 30
0.0
 11
284.413
 21
114.115
 31
0.0
  0
LINE
  8
0
 62
     0
 10
284.413
 20
114.115
 30
0.0
 11
284.609
 21
113.986
 31
0.0
  0
LINE
  8
0
 62
     0
 10
284.609
 20
113.986
 30
0.0
 11
284.795
 21
113.84
 31
0.0
  0
LINE
  8
0
 62
     0
 10
284.795
 20
113.84
 30
0.0
 11
284.967
 21
113.68
 31
0.0
  0
LINE
  8
0
 62
     0
 10
284.967
 20
113.68
 30
0.0
 11
285.127
 21
113.506
 31
0.0
  0
LINE
  8
0
 62
     0
 10
285.127
 20
113.506
 30
0.0
 11
285.273
 21
113.322
 31
0.0
  0
LINE
  8
0
 62
     0
 10
285.273
 20
113.322
 30
0.0
 11
285.404
 21
113.126
 31
0.0
  0
LINE
  8
0
 62
     0
 10
285.404
 20
113.126
 30
0.0
 11
285.52
 21
112.919
 31
0.0
  0
LINE
  8
0
 62
     0
 10
285.52
 20
112.919
 30
0.0
 11
285.618
 21
112.705
 31
0.0
  0
LINE
  8
0
 62
     0
 10
285.618
 20
112.705
 30
0.0
 11
285.699
 21
112.485
 31
0.0
  0
LINE
  8
0
 62
     0
 10
285.699
 20
112.485
 30
0.0
 11
285.764
 21
112.258
 31
0.0
  0
LINE
  8
0
 62
     0
 10
285.764
 20
112.258
 30
0.0
 11
285.809
 21
112.028
 31
0.0
  0
LINE
  8
0
 62
     0
 10
285.809
 20
112.028
 30
0.0
 11
285.837
 21
111.794
 31
0.0
  0
LINE
  8
0
 62
     0
 10
285.837
 20
111.794
 30
0.0
 11
285.846
 21
111.558
 31
0.0
  0
LINE
  8
0
 62
     0
 10
285.846
 20
111.558
 30
0.0
 11
285.846
 21
3.25768
 31
0.0
  0
LINE
  8
0
 62
     0
 10
285.846
 20
3.25768
 30
0.0
 11
285.837
 21
3.02066
 31
0.0
  0
LINE
  8
0
 62
     0
 10
285.837
 20
3.02066
 30
0.0
 11
285.809
 21
2.78777
 31
0.0
  0
LINE
  8
0
 62
     0
 10
285.809
 20
2.78777
 30
0.0
 11
285.764
 21
2.55626
 31
0.0
  0
LINE
  8
0
 62
     0
 10
285.764
 20
2.55626
 30
0.0
 11
285.699
 21
2.32888
 31
0.0
  0
LINE
  8
0
 62
     0
 10
285.699
 20
2.32888
 30
0.0
 11
285.618
 21
2.1084
 31
0.0
  0
LINE
  8
0
 62
     0
 10
285.618
 20
2.1084
 30
0.0
 11
285.52
 21
1.8948
 31
0.0
  0
LINE
  8
0
 62
     0
 10
285.52
 20
1.8948
 30
0.0
 11
285.404
 21
1.68947
 31
0.0
  0
LINE
  8
0
 62
     0
 10
285.404
 20
1.68947
 30
0.0
 11
285.273
 21
1.4938
 31
0.0
  0
LINE
  8
0
 62
     0
 10
285.273
 20
1.4938
 30
0.0
 11
285.127
 21
1.30776
 31
0.0
  0
LINE
  8
0
 62
     0
 10
285.127
 20
1.30776
 30
0.0
 11
284.967
 21
1.1355
 31
0.0
  0
LINE
  8
0
 62
     0
 10
284.967
 20
1.1355
 30
0.0
 11
284.795
 21
0.975653
 31
0.0
  0
LINE
  8
0
 62
     0
 10
284.795
 20
0.975653
 30
0.0
 11
284.609
 21
0.829578
 31
0.0
  0
LINE
  8
0
 62
     0
 10
284.609
 20
0.829578
 30
0.0
 11
284.413
 21
0.698666
 31
0.0
  0
LINE
  8
0
 62
     0
 10
284.413
 20
0.698666
 30
0.0
 11
284.208
 21
0.582909
 31
0.0
  0
LINE
  8
0
 62
     0
 10
284.208
 20
0.582909
 30
0.0
 11
283.994
 21
0.485069
 31
0.0
  0
LINE
  8
0
 62
     0
 10
283.994
 20
0.485069
 30
0.0
 11
283.774
 21
0.403765
 31
0.0
  0
LINE
  8
0
 62
     0
 10
283.774
 20
0.403765
 30
0.0
 11
283.547
 21
0.338998
 31
0.0
  0
LINE
  8
0
 62
     0
 10
283.547
 20
0.338998
 30
0.0
 11
283.315
 21
0.293522
 31
0.0
  0
LINE
  8
0
 62
     0
 10
283.315
 20
0.293522
 30
0.0
 11
283.082
 21
0.265961
 31
0.0
  0
LINE
  8
0
 62
     0
 10
283.082
 20
0.265961
 30
0.0
 11
282.847
 21
0.256315
 31
0.0
  0
LINE
  8
0
 62
     0
 10
282.847
 20
0.256315
 30
0.0
 11
3.09507
 21
0.257693
 31
0.0
  0
LINE
  8
0
 62
     0
 10
3.09507
 20
0.257693
 30
0.0
 11
2.85943
 21
0.265961
 31
0.0
  0
LINE
  8
0
 62
     0
 10
2.85943
 20
0.265961
 30
0.0
 11
2.62516
 21
0.293522
 31
0.0
  0
LINE
  8
0
 62
     0
 10
2.62516
 20
0.293522
 30
0.0
 11
2.39503
 21
0.338998
 31
0.0
  0
LINE
  8
0
 62
     0
 10
2.39503
 20
0.338998
 30
0.0
 11
2.16765
 21
0.403765
 31
0.0
  0
LINE
  8
0
 62
     0
 10
2.16765
 20
0.403765
 30
0.0
 11
1.94717
 21
0.485069
 31
0.0
  0
LINE
  8
0
 62
     0
 10
1.94717
 20
0.485069
 30
0.0
 11
1.73357
 21
0.582909
 31
0.0
  0
LINE
  8
0
 62
     0
 10
1.73357
 20
0.582909
 30
0.0
 11
1.52687
 21
0.698666
 31
0.0
  0
LINE
  8
0
 62
     0
 10
1.52687
 20
0.698666
 30
0.0
 11
1.33119
 21
0.829578
 31
0.0
  0
LINE
  8
0
 62
     0
 10
1.33119
 20
0.829578
 30
0.0
 11
1.14653
 21
0.975653
 31
0.0
  0
LINE
  8
0
 62
     0
 10
1.14653
 20
0.975653
 30
0.0
 11
0.972894
 21
1.1355
 31
0.0
  0
LINE
  8
0
 62
     0
 10
0.972894
 20
1.1355
 30
0.0
 11
0.813043
 21
1.30776
 31
0.0
  0
LINE
  8
0
 62
     0
 10
0.813043
 20
1.30776
 30
0.0
 11
0.666972
 21
1.4938
 31
0.0
  0
LINE
  8
0
 62
     0
 10
0.666972
 20
1.4938
 30
0.0
 11
0.537436
 21
1.68947
 31
0.0
  0
LINE
  8
0
 62
     0
 10
0.537436
 20
1.68947
 30
0.0
 11
0.421679
 21
1.8948
 31
0.0
  0
LINE
  8
0
 62
     0
 10
0.421679
 20
1.8948
 30
0.0
 11
0.323839
 21
2.1084
 31
0.0
  0
LINE
  8
0
 62
     0
 10
0.323839
 20
2.1084
 30
0.0
 11
0.241157
 21
2.32888
 31
0.0
  0
LINE
  8
0
 62
     0
 10
0.241157
 20
2.32888
 30
0.0
 11
0.177767
 21
2.55626
 31
0.0
  0
LINE
  8
0
 62
     0
 10
0.177767
 20
2.55626
 30
0.0
 11
0.130914
 21
2.78777
 31
0.0
  0
LINE
  8
0
 62
     0
 10
0.130914
 20
2.78777
 30
0.0
 11
0.104731
 21
3.02066
 31
0.0
  0
LINE
  8
0
 62
     0
 10
0.104731
 20
3.02066
 30
0.0
 11
0.0950846
 21
3.25768
 31
0.0
  0
LINE
  8
0
 62
     0
 10
0.0950846
 20
3.25768
 30
0.0
 11
0.0950846
 21
111.558
 31
0.0
  0
LINE
  8
0
 62
     0
 10
0.0950846
 20
111.558
 30
0.0
 11
0.104731
 21
111.794
 31
0.0
  0
LINE
  8
0
 62
     0
 10
0.104731
 20
111.794
 30
0.0
 11
0.130914
 21
112.028
 31
0.0
  0
LINE
  8
0
 62
     0
 10
0.130914
 20
112.028
 30
0.0
 11
0.177767
 21
112.258
 31
0.0
  0
LINE
  8
0
 62
     0
 10
0.177767
 20
112.258
 30
0.0
 11
0.241157
 21
112.485
 31
0.0
  0
LINE
  8
0
 62
     0
 10
0.241157
 20
112.485
 30
0.0
 11
0.323839
 21
112.705
 31
0.0
  0
LINE
  8
0
 62
     0
 10
0.323839
 20
112.705
 30
0.0
 11
0.421679
 21
112.919
 31
0.0
  0
LINE
  8
0
 62
     0
 10
0.421679
 20
112.919
 30
0.0
 11
0.537436
 21
113.126
 31
0.0
  0
LINE
  8
0
 62
     0
 10
0.537436
 20
113.126
 30
0.0
 11
0.666972
 21
113.322
 31
0.0
  0
LINE
  8
0
 62
     0
 10
0.666972
 20
113.322
 30
0.0
 11
0.813043
 21
113.506
 31
0.0
  0
LINE
  8
0
 62
     0
 10
0.813043
 20
113.506
 30
0.0
 11
0.972894
 21
113.68
 31
0.0
  0
LINE
  8
0
 62
     0
 10
0.972894
 20
113.68
 30
0.0
 11
1.14653
 21
113.84
 31
0.0
  0
LINE
  8
0
 62
     0
 10
1.14653
 20
113.84
 30
0.0
 11
1.33119
 21
113.986
 31
0.0
  0
LINE
  8
0
 62
     0
 10
1.33119
 20
113.986
 30
0.0
 11
1.52687
 21
114.115
 31
0.0
  0
LINE
  8
0
 62
     0
 10
1.52687
 20
114.115
 30
0.0
 11
1.73357
 21
114.231
 31
0.0
  0
LINE
  8
0
 62
     0
 10
1.73357
 20
114.231
 30
0.0
 11
1.94717
 21
114.329
 31
0.0
  0
LINE
  8
0
 62
     0
 10
1.94717
 20
114.329
 30
0.0
 11
2.16765
 21
114.411
 31
0.0
  0
LINE
  8
0
 62
     0
 10
2.16765
 20
114.411
 30
0.0
 11
2.39503
 21
114.475
 31
0.0
  0
LINE
  8
0
 62
     0
 10
2.39503
 20
114.475
 30
0.0
 11
2.62516
 21
114.522
 31
0.0
  0
LINE
  8
0
 62
     0
 10
2.62516
 20
114.522
 30
0.0
 11
2.85943
 21
114.548
 31
0.0
  0
LINE
  8
0
 62
     0
 10
2.85943
 20
114.548
 30
0.0
 11
3.09507
 21
114.558
 31
0.0
  0
LINE
  8
0
 62
     0
 10
3.09507
 20
114.558
 30
0.0
 11
282.847
 21
114.558
 31
0.0
  0
LINE
  8
0
 62
     0
 10
100.251
 20
16.7831
 30
0.0
 11
100.251
 21
12.0826
 31
0.0
  0
LINE
  8
0
 62
     0
 10
100.251
 20
12.0826
 30
0.0
 11
60.6266
 21
12.0826
 31
0.0
  0
LINE
  8
0
 62
     0
 10
60.6266
 20
12.0826
 30
0.0
 11
60.6266
 21
15.3128
 31
0.0
  0
LINE
  8
0
 62
     0
 10
60.6266
 20
15.3128
 30
0.0
 11
58.9015
 21
15.3128
 31
0.0
  0
LINE
  8
0
 62
     0
 10
58.9015
 20
15.3128
 30
0.0
 11
58.9015
 21
16.2333
 31
0.0
  0
LINE
  8
0
 62
     0
 10
58.9015
 20
16.2333
 30
0.0
 11
55.601
 21
16.2333
 31
0.0
  0
LINE
  8
0
 62
     0
 10
55.601
 20
16.2333
 30
0.0
 11
55.601
 21
15.3128
 31
0.0
  0
LINE
  8
0
 62
     0
 10
55.601
 20
15.3128
 30
0.0
 11
53.8773
 21
15.3128
 31
0.0
  0
LINE
  8
0
 62
     0
 10
53.8773
 20
15.3128
 30
0.0
 11
53.8773
 21
12.0826
 31
0.0
  0
LINE
  8
0
 62
     0
 10
53.8773
 20
12.0826
 30
0.0
 11
53.0518
 21
12.0826
 31
0.0
  0
LINE
  8
0
 62
     0
 10
53.0518
 20
12.0826
 30
0.0
 11
53.0518
 21
9.28384
 31
0.0
  0
LINE
  8
0
 62
     0
 10
53.0518
 20
9.28384
 30
0.0
 11
53.8773
 21
9.28384
 31
0.0
  0
LINE
  8
0
 62
     0
 10
53.8773
 20
9.28384
 30
0.0
 11
53.8773
 21
3.01377
 31
0.0
  0
LINE
  8
0
 62
     0
 10
53.8773
 20
3.01377
 30
0.0
 11
55.601
 21
3.01377
 31
0.0
  0
LINE
  8
0
 62
     0
 10
55.601
 20
3.01377
 30
0.0
 11
55.601
 21
2.03261
 31
0.0
  0
LINE
  8
0
 62
     0
 10
55.601
 20
2.03261
 30
0.0
 11
58.9015
 21
2.03261
 31
0.0
  0
LINE
  8
0
 62
     0
 10
58.9015
 20
2.03261
 30
0.0
 11
58.9015
 21
3.01377
 31
0.0
  0
LINE
  8
0
 62
     0
 10
58.9015
 20
3.01377
 30
0.0
 11
60.6266
 21
3.01377
 31
0.0
  0
LINE
  8
0
 62
     0
 10
60.6266
 20
3.01377
 30
0.0
 11
60.6266
 21
7.48273
 31
0.0
  0
LINE
  8
0
 62
     0
 10
60.6266
 20
7.48273
 30
0.0
 11
100.251
 21
7.48273
 31
0.0
  0
LINE
  8
0
 62
     0
 10
100.251
 20
7.48273
 30
0.0
 11
100.251
 21
2.78364
 31
0.0
  0
LINE
  8
0
 62
     0
 10
100.251
 20
2.78364
 30
0.0
 11
114.252
 21
2.78364
 31
0.0
  0
LINE
  8
0
 62
     0
 10
114.252
 20
2.78364
 30
0.0
 11
114.252
 21
7.48273
 31
0.0
  0
LINE
  8
0
 62
     0
 10
114.252
 20
7.48273
 30
0.0
 11
153.876
 21
7.48273
 31
0.0
  0
LINE
  8
0
 62
     0
 10
153.876
 20
7.48273
 30
0.0
 11
153.876
 21
3.01377
 31
0.0
  0
LINE
  8
0
 62
     0
 10
153.876
 20
3.01377
 30
0.0
 11
155.601
 21
3.01377
 31
0.0
  0
LINE
  8
0
 62
     0
 10
155.601
 20
3.01377
 30
0.0
 11
155.601
 21
2.03261
 31
0.0
  0
LINE
  8
0
 62
     0
 10
155.601
 20
2.03261
 30
0.0
 11
158.902
 21
2.03261
 31
0.0
  0
LINE
  8
0
 62
     0
 10
158.902
 20
2.03261
 30
0.0
 11
158.902
 21
3.01377
 31
0.0
  0
LINE
  8
0
 62
     0
 10
158.902
 20
3.01377
 30
0.0
 11
160.627
 21
3.01377
 31
0.0
  0
LINE
  8
0
 62
     0
 10
160.627
 20
3.01377
 30
0.0
 11
160.627
 21
9.28384
 31
0.0
  0
LINE
  8
0
 62
     0
 10
160.627
 20
9.28384
 30
0.0
 11
161.451
 21
9.28384
 31
0.0
  0
LINE
  8
0
 62
     0
 10
161.451
 20
9.28384
 30
0.0
 11
161.451
 21
12.0826
 31
0.0
  0
LINE
  8
0
 62
     0
 10
161.451
 20
12.0826
 30
0.0
 11
160.627
 21
12.0826
 31
0.0
  0
LINE
  8
0
 62
     0
 10
160.627
 20
12.0826
 30
0.0
 11
160.627
 21
15.3128
 31
0.0
  0
LINE
  8
0
 62
     0
 10
160.627
 20
15.3128
 30
0.0
 11
158.902
 21
15.3128
 31
0.0
  0
LINE
  8
0
 62
     0
 10
158.902
 20
15.3128
 30
0.0
 11
158.902
 21
16.2333
 31
0.0
  0
LINE
  8
0
 62
     0
 10
158.902
 20
16.2333
 30
0.0
 11
155.601
 21
16.2333
 31
0.0
  0
LINE
  8
0
 62
     0
 10
155.601
 20
16.2333
 30
0.0
 11
155.601
 21
15.3128
 31
0.0
  0
LINE
  8
0
 62
     0
 10
155.601
 20
15.3128
 30
0.0
 11
153.876
 21
15.3128
 31
0.0
  0
LINE
  8
0
 62
     0
 10
153.876
 20
15.3128
 30
0.0
 11
153.876
 21
12.0826
 31
0.0
  0
LINE
  8
0
 62
     0
 10
153.876
 20
12.0826
 30
0.0
 11
114.252
 21
12.0826
 31
0.0
  0
LINE
  8
0
 62
     0
 10
114.252
 20
12.0826
 30
0.0
 11
114.252
 21
16.7831
 31
0.0
  0
LINE
  8
0
 62
     0
 10
114.252
 20
16.7831
 30
0.0
 11
100.251
 21
16.7831
 31
0.0
  0
LINE
  8
0
 62
     0
 10
264.557
 20
16.7831
 30
0.0
 11
278.558
 21
16.7831
 31
0.0
  0
LINE
  8
0
 62
     0
 10
278.558
 20
16.7831
 30
0.0
 11
278.558
 21
2.78364
 31
0.0
  0
LINE
  8
0
 62
     0
 10
278.558
 20
2.78364
 30
0.0
 11
264.557
 21
2.78364
 31
0.0
  0
LINE
  8
0
 62
     0
 10
264.557
 20
2.78364
 30
0.0
 11
264.557
 21
16.7831
 31
0.0
  0
LINE
  8
0
 62
     0
 10
245.507
 20
16.7831
 30
0.0
 11
259.508
 21
16.7831
 31
0.0
  0
LINE
  8
0
 62
     0
 10
259.508
 20
16.7831
 30
0.0
 11
259.508
 21
2.78364
 31
0.0
  0
LINE
  8
0
 62
     0
 10
259.508
 20
2.78364
 30
0.0
 11
245.507
 21
2.78364
 31
0.0
  0
LINE
  8
0
 62
     0
 10
245.507
 20
2.78364
 30
0.0
 11
245.507
 21
16.7831
 31
0.0
  0
LINE
  8
0
 62
     0
 10
226.457
 20
16.7831
 30
0.0
 11
240.458
 21
16.7831
 31
0.0
  0
LINE
  8
0
 62
     0
 10
240.458
 20
16.7831
 30
0.0
 11
240.458
 21
2.78364
 31
0.0
  0
LINE
  8
0
 62
     0
 10
240.458
 20
2.78364
 30
0.0
 11
226.457
 21
2.78364
 31
0.0
  0
LINE
  8
0
 62
     0
 10
226.457
 20
2.78364
 30
0.0
 11
226.457
 21
16.7831
 31
0.0
  0
LINE
  8
0
 62
     0
 10
195.501
 20
16.7831
 30
0.0
 11
209.502
 21
16.7831
 31
0.0
  0
LINE
  8
0
 62
     0
 10
209.502
 20
16.7831
 30
0.0
 11
209.502
 21
2.78364
 31
0.0
  0
LINE
  8
0
 62
     0
 10
209.502
 20
2.78364
 30
0.0
 11
195.501
 21
2.78364
 31
0.0
  0
LINE
  8
0
 62
     0
 10
195.501
 20
2.78364
 30
0.0
 11
195.501
 21
16.7831
 31
0.0
  0
LINE
  8
0
 62
     0
 10
171.688
 20
16.7831
 30
0.0
 11
185.688
 21
16.7831
 31
0.0
  0
LINE
  8
0
 62
     0
 10
185.688
 20
16.7831
 30
0.0
 11
185.688
 21
2.78364
 31
0.0
  0
LINE
  8
0
 62
     0
 10
185.688
 20
2.78364
 30
0.0
 11
171.688
 21
2.78364
 31
0.0
  0
LINE
  8
0
 62
     0
 10
171.688
 20
2.78364
 30
0.0
 11
171.688
 21
16.7831
 31
0.0
  0
LINE
  8
0
 62
     0
 10
28.8134
 20
16.7831
 30
0.0
 11
42.8128
 21
16.7831
 31
0.0
  0
LINE
  8
0
 62
     0
 10
42.8128
 20
16.7831
 30
0.0
 11
42.8128
 21
2.78364
 31
0.0
  0
LINE
  8
0
 62
     0
 10
42.8128
 20
2.78364
 30
0.0
 11
28.8134
 21
2.78364
 31
0.0
  0
LINE
  8
0
 62
     0
 10
28.8134
 20
2.78364
 30
0.0
 11
28.8134
 21
16.7831
 31
0.0
  0
LINE
  8
0
 62
     0
 10
5.00091
 20
16.7831
 30
0.0
 11
19.0018
 21
16.7831
 31
0.0
  0
LINE
  8
0
 62
     0
 10
19.0018
 20
16.7831
 30
0.0
 11
19.0018
 21
2.78364
 31
0.0
  0
LINE
  8
0
 62
     0
 10
19.0018
 20
2.78364
 30
0.0
 11
5.00091
 21
2.78364
 31
0.0
  0
LINE
  8
0
 62
     0
 10
5.00091
 20
2.78364
 30
0.0
 11
5.00091
 21
16.7831
 31
0.0
  0
LINE
  8
0
 62
     0
 10
14.5259
 20
35.8316
 30
0.0
 11
14.5259
 21
31.1326
 31
0.0
  0
LINE
  8
0
 62
     0
 10
14.5259
 20
31.1326
 30
0.0
 11
13.0018
 21
31.1326
 31
0.0
  0
LINE
  8
0
 62
     0
 10
13.0018
 20
31.1326
 30
0.0
 11
13.0018
 21
34.3628
 31
0.0
  0
LINE
  8
0
 62
     0
 10
13.0018
 20
34.3628
 30
0.0
 11
11.2765
 21
34.3628
 31
0.0
  0
LINE
  8
0
 62
     0
 10
11.2765
 20
34.3628
 30
0.0
 11
11.2765
 21
35.2834
 31
0.0
  0
LINE
  8
0
 62
     0
 10
11.2765
 20
35.2834
 30
0.0
 11
7.97609
 21
35.2834
 31
0.0
  0
LINE
  8
0
 62
     0
 10
7.97609
 20
35.2834
 30
0.0
 11
7.97609
 21
34.3628
 31
0.0
  0
LINE
  8
0
 62
     0
 10
7.97609
 20
34.3628
 30
0.0
 11
6.25217
 21
34.3628
 31
0.0
  0
LINE
  8
0
 62
     0
 10
6.25217
 20
34.3628
 30
0.0
 11
6.25217
 21
31.1326
 31
0.0
  0
LINE
  8
0
 62
     0
 10
6.25217
 20
31.1326
 30
0.0
 11
5.42671
 21
31.1326
 31
0.0
  0
LINE
  8
0
 62
     0
 10
5.42671
 20
31.1326
 30
0.0
 11
5.42671
 21
28.3325
 31
0.0
  0
LINE
  8
0
 62
     0
 10
5.42671
 20
28.3325
 30
0.0
 11
6.25217
 21
28.3325
 31
0.0
  0
LINE
  8
0
 62
     0
 10
6.25217
 20
28.3325
 30
0.0
 11
6.25217
 21
22.0638
 31
0.0
  0
LINE
  8
0
 62
     0
 10
6.25217
 20
22.0638
 30
0.0
 11
7.97609
 21
22.0638
 31
0.0
  0
LINE
  8
0
 62
     0
 10
7.97609
 20
22.0638
 30
0.0
 11
7.97609
 21
21.0826
 31
0.0
  0
LINE
  8
0
 62
     0
 10
7.97609
 20
21.0826
 30
0.0
 11
11.2765
 21
21.0826
 31
0.0
  0
LINE
  8
0
 62
     0
 10
11.2765
 20
21.0826
 30
0.0
 11
11.2765
 21
22.0638
 31
0.0
  0
LINE
  8
0
 62
     0
 10
11.2765
 20
22.0638
 30
0.0
 11
13.0018
 21
22.0638
 31
0.0
  0
LINE
  8
0
 62
     0
 10
13.0018
 20
22.0638
 30
0.0
 11
13.0018
 21
26.5327
 31
0.0
  0
LINE
  8
0
 62
     0
 10
13.0018
 20
26.5327
 30
0.0
 11
14.5259
 21
26.5327
 31
0.0
  0
LINE
  8
0
 62
     0
 10
14.5259
 20
26.5327
 30
0.0
 11
14.5259
 21
21.8323
 31
0.0
  0
LINE
  8
0
 62
     0
 10
14.5259
 20
21.8323
 30
0.0
 11
28.5268
 21
21.8323
 31
0.0
  0
LINE
  8
0
 62
     0
 10
28.5268
 20
21.8323
 30
0.0
 11
28.5268
 21
26.5327
 31
0.0
  0
LINE
  8
0
 62
     0
 10
28.5268
 20
26.5327
 30
0.0
 11
30.0509
 21
26.5327
 31
0.0
  0
LINE
  8
0
 62
     0
 10
30.0509
 20
26.5327
 30
0.0
 11
30.0509
 21
22.0638
 31
0.0
  0
LINE
  8
0
 62
     0
 10
30.0509
 20
22.0638
 30
0.0
 11
31.7762
 21
22.0638
 31
0.0
  0
LINE
  8
0
 62
     0
 10
31.7762
 20
22.0638
 30
0.0
 11
31.7762
 21
21.0826
 31
0.0
  0
LINE
  8
0
 62
     0
 10
31.7762
 20
21.0826
 30
0.0
 11
35.0766
 21
21.0826
 31
0.0
  0
LINE
  8
0
 62
     0
 10
35.0766
 20
21.0826
 30
0.0
 11
35.0766
 21
22.0638
 31
0.0
  0
LINE
  8
0
 62
     0
 10
35.0766
 20
22.0638
 30
0.0
 11
36.8018
 21
22.0638
 31
0.0
  0
LINE
  8
0
 62
     0
 10
36.8018
 20
22.0638
 30
0.0
 11
36.8018
 21
28.3325
 31
0.0
  0
LINE
  8
0
 62
     0
 10
36.8018
 20
28.3325
 30
0.0
 11
37.6259
 21
28.3325
 31
0.0
  0
LINE
  8
0
 62
     0
 10
37.6259
 20
28.3325
 30
0.0
 11
37.6259
 21
31.1326
 31
0.0
  0
LINE
  8
0
 62
     0
 10
37.6259
 20
31.1326
 30
0.0
 11
36.8018
 21
31.1326
 31
0.0
  0
LINE
  8
0
 62
     0
 10
36.8018
 20
31.1326
 30
0.0
 11
36.8018
 21
34.3628
 31
0.0
  0
LINE
  8
0
 62
     0
 10
36.8018
 20
34.3628
 30
0.0
 11
35.0766
 21
34.3628
 31
0.0
  0
LINE
  8
0
 62
     0
 10
35.0766
 20
34.3628
 30
0.0
 11
35.0766
 21
35.2834
 31
0.0
  0
LINE
  8
0
 62
     0
 10
35.0766
 20
35.2834
 30
0.0
 11
31.7762
 21
35.2834
 31
0.0
  0
LINE
  8
0
 62
     0
 10
31.7762
 20
35.2834
 30
0.0
 11
31.7762
 21
34.3628
 31
0.0
  0
LINE
  8
0
 62
     0
 10
31.7762
 20
34.3628
 30
0.0
 11
30.0509
 21
34.3628
 31
0.0
  0
LINE
  8
0
 62
     0
 10
30.0509
 20
34.3628
 30
0.0
 11
30.0509
 21
31.1326
 31
0.0
  0
LINE
  8
0
 62
     0
 10
30.0509
 20
31.1326
 30
0.0
 11
28.5268
 21
31.1326
 31
0.0
  0
LINE
  8
0
 62
     0
 10
28.5268
 20
31.1326
 30
0.0
 11
28.5268
 21
35.8316
 31
0.0
  0
LINE
  8
0
 62
     0
 10
28.5268
 20
35.8316
 30
0.0
 11
14.5259
 21
35.8316
 31
0.0
  0
LINE
  8
0
 62
     0
 10
266.938
 20
35.8316
 30
0.0
 11
280.938
 21
35.8316
 31
0.0
  0
LINE
  8
0
 62
     0
 10
280.938
 20
35.8316
 30
0.0
 11
280.938
 21
21.8323
 31
0.0
  0
LINE
  8
0
 62
     0
 10
280.938
 20
21.8323
 30
0.0
 11
266.938
 21
21.8323
 31
0.0
  0
LINE
  8
0
 62
     0
 10
266.938
 20
21.8323
 30
0.0
 11
266.938
 21
35.8316
 31
0.0
  0
LINE
  8
0
 62
     0
 10
245.507
 20
35.8316
 30
0.0
 11
259.508
 21
35.8316
 31
0.0
  0
LINE
  8
0
 62
     0
 10
259.508
 20
35.8316
 30
0.0
 11
259.508
 21
21.8323
 31
0.0
  0
LINE
  8
0
 62
     0
 10
259.508
 20
21.8323
 30
0.0
 11
245.507
 21
21.8323
 31
0.0
  0
LINE
  8
0
 62
     0
 10
245.507
 20
21.8323
 30
0.0
 11
245.507
 21
35.8316
 31
0.0
  0
LINE
  8
0
 62
     0
 10
216.932
 20
35.8316
 30
0.0
 11
230.933
 21
35.8316
 31
0.0
  0
LINE
  8
0
 62
     0
 10
230.933
 20
35.8316
 30
0.0
 11
230.933
 21
21.8323
 31
0.0
  0
LINE
  8
0
 62
     0
 10
230.933
 20
21.8323
 30
0.0
 11
216.932
 21
21.8323
 31
0.0
  0
LINE
  8
0
 62
     0
 10
216.932
 20
21.8323
 30
0.0
 11
216.932
 21
35.8316
 31
0.0
  0
LINE
  8
0
 62
     0
 10
197.882
 20
35.8316
 30
0.0
 11
211.883
 21
35.8316
 31
0.0
  0
LINE
  8
0
 62
     0
 10
211.883
 20
35.8316
 30
0.0
 11
211.883
 21
21.8323
 31
0.0
  0
LINE
  8
0
 62
     0
 10
211.883
 20
21.8323
 30
0.0
 11
197.882
 21
21.8323
 31
0.0
  0
LINE
  8
0
 62
     0
 10
197.882
 20
21.8323
 30
0.0
 11
197.882
 21
35.8316
 31
0.0
  0
LINE
  8
0
 62
     0
 10
178.832
 20
35.8316
 30
0.0
 11
192.833
 21
35.8316
 31
0.0
  0
LINE
  8
0
 62
     0
 10
192.833
 20
35.8316
 30
0.0
 11
192.833
 21
21.8323
 31
0.0
  0
LINE
  8
0
 62
     0
 10
192.833
 20
21.8323
 30
0.0
 11
178.832
 21
21.8323
 31
0.0
  0
LINE
  8
0
 62
     0
 10
178.832
 20
21.8323
 30
0.0
 11
178.832
 21
35.8316
 31
0.0
  0
LINE
  8
0
 62
     0
 10
159.782
 20
35.8316
 30
0.0
 11
173.783
 21
35.8316
 31
0.0
  0
LINE
  8
0
 62
     0
 10
173.783
 20
35.8316
 30
0.0
 11
173.783
 21
21.8323
 31
0.0
  0
LINE
  8
0
 62
     0
 10
173.783
 20
21.8323
 30
0.0
 11
159.782
 21
21.8323
 31
0.0
  0
LINE
  8
0
 62
     0
 10
159.782
 20
21.8323
 30
0.0
 11
159.782
 21
35.8316
 31
0.0
  0
LINE
  8
0
 62
     0
 10
140.732
 20
35.8316
 30
0.0
 11
154.733
 21
35.8316
 31
0.0
  0
LINE
  8
0
 62
     0
 10
154.733
 20
35.8316
 30
0.0
 11
154.733
 21
21.8323
 31
0.0
  0
LINE
  8
0
 62
     0
 10
154.733
 20
21.8323
 30
0.0
 11
140.732
 21
21.8323
 31
0.0
  0
LINE
  8
0
 62
     0
 10
140.732
 20
21.8323
 30
0.0
 11
140.732
 21
35.8316
 31
0.0
  0
LINE
  8
0
 62
     0
 10
121.682
 20
35.8316
 30
0.0
 11
135.683
 21
35.8316
 31
0.0
  0
LINE
  8
0
 62
     0
 10
135.683
 20
35.8316
 30
0.0
 11
135.683
 21
21.8323
 31
0.0
  0
LINE
  8
0
 62
     0
 10
135.683
 20
21.8323
 30
0.0
 11
121.682
 21
21.8323
 31
0.0
  0
LINE
  8
0
 62
     0
 10
121.682
 20
21.8323
 30
0.0
 11
121.682
 21
35.8316
 31
0.0
  0
LINE
  8
0
 62
     0
 10
102.632
 20
35.8316
 30
0.0
 11
116.633
 21
35.8316
 31
0.0
  0
LINE
  8
0
 62
     0
 10
116.633
 20
35.8316
 30
0.0
 11
116.633
 21
21.8323
 31
0.0
  0
LINE
  8
0
 62
     0
 10
116.633
 20
21.8323
 30
0.0
 11
102.632
 21
21.8323
 31
0.0
  0
LINE
  8
0
 62
     0
 10
102.632
 20
21.8323
 30
0.0
 11
102.632
 21
35.8316
 31
0.0
  0
LINE
  8
0
 62
     0
 10
83.5822
 20
35.8316
 30
0.0
 11
97.5829
 21
35.8316
 31
0.0
  0
LINE
  8
0
 62
     0
 10
97.5829
 20
35.8316
 30
0.0
 11
97.5829
 21
21.8323
 31
0.0
  0
LINE
  8
0
 62
     0
 10
97.5829
 20
21.8323
 30
0.0
 11
83.5822
 21
21.8323
 31
0.0
  0
LINE
  8
0
 62
     0
 10
83.5822
 20
21.8323
 30
0.0
 11
83.5822
 21
35.8316
 31
0.0
  0
LINE
  8
0
 62
     0
 10
64.5322
 20
35.8316
 30
0.0
 11
78.5329
 21
35.8316
 31
0.0
  0
LINE
  8
0
 62
     0
 10
78.5329
 20
35.8316
 30
0.0
 11
78.5329
 21
21.8323
 31
0.0
  0
LINE
  8
0
 62
     0
 10
78.5329
 20
21.8323
 30
0.0
 11
64.5322
 21
21.8323
 31
0.0
  0
LINE
  8
0
 62
     0
 10
64.5322
 20
21.8323
 30
0.0
 11
64.5322
 21
35.8316
 31
0.0
  0
LINE
  8
0
 62
     0
 10
45.4822
 20
35.8316
 30
0.0
 11
59.4829
 21
35.8316
 31
0.0
  0
LINE
  8
0
 62
     0
 10
59.4829
 20
35.8316
 30
0.0
 11
59.4829
 21
21.8323
 31
0.0
  0
LINE
  8
0
 62
     0
 10
59.4829
 20
21.8323
 30
0.0
 11
45.4822
 21
21.8323
 31
0.0
  0
LINE
  8
0
 62
     0
 10
45.4822
 20
21.8323
 30
0.0
 11
45.4822
 21
35.8316
 31
0.0
  0
LINE
  8
0
 62
     0
 10
257.413
 20
54.8816
 30
0.0
 11
257.413
 21
50.1826
 31
0.0
  0
LINE
  8
0
 62
     0
 10
257.413
 20
50.1826
 30
0.0
 11
255.888
 21
50.1826
 31
0.0
  0
LINE
  8
0
 62
     0
 10
255.888
 20
50.1826
 30
0.0
 11
255.888
 21
53.4127
 31
0.0
  0
LINE
  8
0
 62
     0
 10
255.888
 20
53.4127
 30
0.0
 11
254.163
 21
53.4127
 31
0.0
  0
LINE
  8
0
 62
     0
 10
254.163
 20
53.4127
 30
0.0
 11
254.163
 21
54.3334
 31
0.0
  0
LINE
  8
0
 62
     0
 10
254.163
 20
54.3334
 30
0.0
 11
250.863
 21
54.3334
 31
0.0
  0
LINE
  8
0
 62
     0
 10
250.863
 20
54.3334
 30
0.0
 11
250.863
 21
53.4127
 31
0.0
  0
LINE
  8
0
 62
     0
 10
250.863
 20
53.4127
 30
0.0
 11
249.138
 21
53.4127
 31
0.0
  0
LINE
  8
0
 62
     0
 10
249.138
 20
53.4127
 30
0.0
 11
249.138
 21
50.1826
 31
0.0
  0
LINE
  8
0
 62
     0
 10
249.138
 20
50.1826
 30
0.0
 11
248.313
 21
50.1826
 31
0.0
  0
LINE
  8
0
 62
     0
 10
248.313
 20
50.1826
 30
0.0
 11
248.313
 21
47.3826
 31
0.0
  0
LINE
  8
0
 62
     0
 10
248.313
 20
47.3826
 30
0.0
 11
249.138
 21
47.3826
 31
0.0
  0
LINE
  8
0
 62
     0
 10
249.138
 20
47.3826
 30
0.0
 11
249.138
 21
41.1124
 31
0.0
  0
LINE
  8
0
 62
     0
 10
249.138
 20
41.1124
 30
0.0
 11
250.863
 21
41.1124
 31
0.0
  0
LINE
  8
0
 62
     0
 10
250.863
 20
41.1124
 30
0.0
 11
250.863
 21
40.1327
 31
0.0
  0
LINE
  8
0
 62
     0
 10
250.863
 20
40.1327
 30
0.0
 11
254.163
 21
40.1327
 31
0.0
  0
LINE
  8
0
 62
     0
 10
254.163
 20
40.1327
 30
0.0
 11
254.163
 21
41.1124
 31
0.0
  0
LINE
  8
0
 62
     0
 10
254.163
 20
41.1124
 30
0.0
 11
255.888
 21
41.1124
 31
0.0
  0
LINE
  8
0
 62
     0
 10
255.888
 20
41.1124
 30
0.0
 11
255.888
 21
45.5828
 31
0.0
  0
LINE
  8
0
 62
     0
 10
255.888
 20
45.5828
 30
0.0
 11
257.413
 21
45.5828
 31
0.0
  0
LINE
  8
0
 62
     0
 10
257.413
 20
45.5828
 30
0.0
 11
257.413
 21
40.8824
 31
0.0
  0
LINE
  8
0
 62
     0
 10
257.413
 20
40.8824
 30
0.0
 11
271.413
 21
40.8824
 31
0.0
  0
LINE
  8
0
 62
     0
 10
271.413
 20
40.8824
 30
0.0
 11
271.413
 21
45.5828
 31
0.0
  0
LINE
  8
0
 62
     0
 10
271.413
 20
45.5828
 30
0.0
 11
272.939
 21
45.5828
 31
0.0
  0
LINE
  8
0
 62
     0
 10
272.939
 20
45.5828
 30
0.0
 11
272.939
 21
41.1124
 31
0.0
  0
LINE
  8
0
 62
     0
 10
272.939
 20
41.1124
 30
0.0
 11
274.664
 21
41.1124
 31
0.0
  0
LINE
  8
0
 62
     0
 10
274.664
 20
41.1124
 30
0.0
 11
274.664
 21
40.1327
 31
0.0
  0
LINE
  8
0
 62
     0
 10
274.664
 20
40.1327
 30
0.0
 11
277.964
 21
40.1327
 31
0.0
  0
LINE
  8
0
 62
     0
 10
277.964
 20
40.1327
 30
0.0
 11
277.964
 21
41.1124
 31
0.0
  0
LINE
  8
0
 62
     0
 10
277.964
 20
41.1124
 30
0.0
 11
279.688
 21
41.1124
 31
0.0
  0
LINE
  8
0
 62
     0
 10
279.688
 20
41.1124
 30
0.0
 11
279.688
 21
47.3826
 31
0.0
  0
LINE
  8
0
 62
     0
 10
279.688
 20
47.3826
 30
0.0
 11
280.513
 21
47.3826
 31
0.0
  0
LINE
  8
0
 62
     0
 10
280.513
 20
47.3826
 30
0.0
 11
280.513
 21
50.1826
 31
0.0
  0
LINE
  8
0
 62
     0
 10
280.513
 20
50.1826
 30
0.0
 11
279.688
 21
50.1826
 31
0.0
  0
LINE
  8
0
 62
     0
 10
279.688
 20
50.1826
 30
0.0
 11
279.688
 21
53.4127
 31
0.0
  0
LINE
  8
0
 62
     0
 10
279.688
 20
53.4127
 30
0.0
 11
277.964
 21
53.4127
 31
0.0
  0
LINE
  8
0
 62
     0
 10
277.964
 20
53.4127
 30
0.0
 11
277.964
 21
54.3334
 31
0.0
  0
LINE
  8
0
 62
     0
 10
277.964
 20
54.3334
 30
0.0
 11
274.664
 21
54.3334
 31
0.0
  0
LINE
  8
0
 62
     0
 10
274.664
 20
54.3334
 30
0.0
 11
274.664
 21
53.4127
 31
0.0
  0
LINE
  8
0
 62
     0
 10
274.664
 20
53.4127
 30
0.0
 11
272.939
 21
53.4127
 31
0.0
  0
LINE
  8
0
 62
     0
 10
272.939
 20
53.4127
 30
0.0
 11
272.939
 21
50.1826
 31
0.0
  0
LINE
  8
0
 62
     0
 10
272.939
 20
50.1826
 30
0.0
 11
271.413
 21
50.1826
 31
0.0
  0
LINE
  8
0
 62
     0
 10
271.413
 20
50.1826
 30
0.0
 11
271.413
 21
54.8816
 31
0.0
  0
LINE
  8
0
 62
     0
 10
271.413
 20
54.8816
 30
0.0
 11
257.413
 21
54.8816
 31
0.0
  0
LINE
  8
0
 62
     0
 10
226.457
 20
54.8816
 30
0.0
 11
240.458
 21
54.8816
 31
0.0
  0
LINE
  8
0
 62
     0
 10
240.458
 20
54.8816
 30
0.0
 11
240.458
 21
40.8824
 31
0.0
  0
LINE
  8
0
 62
     0
 10
240.458
 20
40.8824
 30
0.0
 11
226.457
 21
40.8824
 31
0.0
  0
LINE
  8
0
 62
     0
 10
226.457
 20
40.8824
 30
0.0
 11
226.457
 21
54.8816
 31
0.0
  0
LINE
  8
0
 62
     0
 10
207.407
 20
54.8816
 30
0.0
 11
221.408
 21
54.8816
 31
0.0
  0
LINE
  8
0
 62
     0
 10
221.408
 20
54.8816
 30
0.0
 11
221.408
 21
40.8824
 31
0.0
  0
LINE
  8
0
 62
     0
 10
221.408
 20
40.8824
 30
0.0
 11
207.407
 21
40.8824
 31
0.0
  0
LINE
  8
0
 62
     0
 10
207.407
 20
40.8824
 30
0.0
 11
207.407
 21
54.8816
 31
0.0
  0
LINE
  8
0
 62
     0
 10
188.357
 20
54.8816
 30
0.0
 11
202.358
 21
54.8816
 31
0.0
  0
LINE
  8
0
 62
     0
 10
202.358
 20
54.8816
 30
0.0
 11
202.358
 21
40.8824
 31
0.0
  0
LINE
  8
0
 62
     0
 10
202.358
 20
40.8824
 30
0.0
 11
188.357
 21
40.8824
 31
0.0
  0
LINE
  8
0
 62
     0
 10
188.357
 20
40.8824
 30
0.0
 11
188.357
 21
54.8816
 31
0.0
  0
LINE
  8
0
 62
     0
 10
169.307
 20
54.8816
 30
0.0
 11
183.308
 21
54.8816
 31
0.0
  0
LINE
  8
0
 62
     0
 10
183.308
 20
54.8816
 30
0.0
 11
183.308
 21
40.8824
 31
0.0
  0
LINE
  8
0
 62
     0
 10
183.308
 20
40.8824
 30
0.0
 11
169.307
 21
40.8824
 31
0.0
  0
LINE
  8
0
 62
     0
 10
169.307
 20
40.8824
 30
0.0
 11
169.307
 21
54.8816
 31
0.0
  0
LINE
  8
0
 62
     0
 10
150.257
 20
54.8816
 30
0.0
 11
164.258
 21
54.8816
 31
0.0
  0
LINE
  8
0
 62
     0
 10
164.258
 20
54.8816
 30
0.0
 11
164.258
 21
40.8824
 31
0.0
  0
LINE
  8
0
 62
     0
 10
164.258
 20
40.8824
 30
0.0
 11
150.257
 21
40.8824
 31
0.0
  0
LINE
  8
0
 62
     0
 10
150.257
 20
40.8824
 30
0.0
 11
150.257
 21
54.8816
 31
0.0
  0
LINE
  8
0
 62
     0
 10
131.207
 20
54.8816
 30
0.0
 11
145.208
 21
54.8816
 31
0.0
  0
LINE
  8
0
 62
     0
 10
145.208
 20
54.8816
 30
0.0
 11
145.208
 21
40.8824
 31
0.0
  0
LINE
  8
0
 62
     0
 10
145.208
 20
40.8824
 30
0.0
 11
131.207
 21
40.8824
 31
0.0
  0
LINE
  8
0
 62
     0
 10
131.207
 20
40.8824
 30
0.0
 11
131.207
 21
54.8816
 31
0.0
  0
LINE
  8
0
 62
     0
 10
112.157
 20
54.8816
 30
0.0
 11
126.158
 21
54.8816
 31
0.0
  0
LINE
  8
0
 62
     0
 10
126.158
 20
54.8816
 30
0.0
 11
126.158
 21
40.8824
 31
0.0
  0
LINE
  8
0
 62
     0
 10
126.158
 20
40.8824
 30
0.0
 11
112.157
 21
40.8824
 31
0.0
  0
LINE
  8
0
 62
     0
 10
112.157
 20
40.8824
 30
0.0
 11
112.157
 21
54.8816
 31
0.0
  0
LINE
  8
0
 62
     0
 10
93.1072
 20
54.8816
 30
0.0
 11
107.108
 21
54.8816
 31
0.0
  0
LINE
  8
0
 62
     0
 10
107.108
 20
54.8816
 30
0.0
 11
107.108
 21
40.8824
 31
0.0
  0
LINE
  8
0
 62
     0
 10
107.108
 20
40.8824
 30
0.0
 11
93.1072
 21
40.8824
 31
0.0
  0
LINE
  8
0
 62
     0
 10
93.1072
 20
40.8824
 30
0.0
 11
93.1072
 21
54.8816
 31
0.0
  0
LINE
  8
0
 62
     0
 10
74.0572
 20
54.8816
 30
0.0
 11
88.0579
 21
54.8816
 31
0.0
  0
LINE
  8
0
 62
     0
 10
88.0579
 20
54.8816
 30
0.0
 11
88.0579
 21
40.8824
 31
0.0
  0
LINE
  8
0
 62
     0
 10
88.0579
 20
40.8824
 30
0.0
 11
74.0572
 21
40.8824
 31
0.0
  0
LINE
  8
0
 62
     0
 10
74.0572
 20
40.8824
 30
0.0
 11
74.0572
 21
54.8816
 31
0.0
  0
LINE
  8
0
 62
     0
 10
55.0072
 20
54.8816
 30
0.0
 11
69.0079
 21
54.8816
 31
0.0
  0
LINE
  8
0
 62
     0
 10
69.0079
 20
54.8816
 30
0.0
 11
69.0079
 21
40.8824
 31
0.0
  0
LINE
  8
0
 62
     0
 10
69.0079
 20
40.8824
 30
0.0
 11
55.0072
 21
40.8824
 31
0.0
  0
LINE
  8
0
 62
     0
 10
55.0072
 20
40.8824
 30
0.0
 11
55.0072
 21
54.8816
 31
0.0
  0
LINE
  8
0
 62
     0
 10
35.9572
 20
54.8816
 30
0.0
 11
49.9579
 21
54.8816
 31
0.0
  0
LINE
  8
0
 62
     0
 10
49.9579
 20
54.8816
 30
0.0
 11
49.9579
 21
40.8824
 31
0.0
  0
LINE
  8
0
 62
     0
 10
49.9579
 20
40.8824
 30
0.0
 11
35.9572
 21
40.8824
 31
0.0
  0
LINE
  8
0
 62
     0
 10
35.9572
 20
40.8824
 30
0.0
 11
35.9572
 21
54.8816
 31
0.0
  0
LINE
  8
0
 62
     0
 10
9.76341
 20
54.8816
 30
0.0
 11
23.7629
 21
54.8816
 31
0.0
  0
LINE
  8
0
 62
     0
 10
23.7629
 20
54.8816
 30
0.0
 11
23.7629
 21
40.8824
 31
0.0
  0
LINE
  8
0
 62
     0
 10
23.7629
 20
40.8824
 30
0.0
 11
9.76341
 21
40.8824
 31
0.0
  0
LINE
  8
0
 62
     0
 10
9.76341
 20
40.8824
 30
0.0
 11
9.76341
 21
54.8816
 31
0.0
  0
LINE
  8
0
 62
     0
 10
264.557
 20
73.9316
 30
0.0
 11
278.558
 21
73.9316
 31
0.0
  0
LINE
  8
0
 62
     0
 10
278.558
 20
73.9316
 30
0.0
 11
278.558
 21
59.9324
 31
0.0
  0
LINE
  8
0
 62
     0
 10
278.558
 20
59.9324
 30
0.0
 11
264.557
 21
59.9324
 31
0.0
  0
LINE
  8
0
 62
     0
 10
264.557
 20
59.9324
 30
0.0
 11
264.557
 21
73.9316
 31
0.0
  0
LINE
  8
0
 62
     0
 10
240.746
 20
73.9316
 30
0.0
 11
254.744
 21
73.9316
 31
0.0
  0
LINE
  8
0
 62
     0
 10
254.744
 20
73.9316
 30
0.0
 11
254.744
 21
59.9324
 31
0.0
  0
LINE
  8
0
 62
     0
 10
254.744
 20
59.9324
 30
0.0
 11
240.746
 21
59.9324
 31
0.0
  0
LINE
  8
0
 62
     0
 10
240.746
 20
59.9324
 30
0.0
 11
240.746
 21
73.9316
 31
0.0
  0
LINE
  8
0
 62
     0
 10
221.696
 20
73.9316
 30
0.0
 11
235.695
 21
73.9316
 31
0.0
  0
LINE
  8
0
 62
     0
 10
235.695
 20
73.9316
 30
0.0
 11
235.695
 21
59.9324
 31
0.0
  0
LINE
  8
0
 62
     0
 10
235.695
 20
59.9324
 30
0.0
 11
221.696
 21
59.9324
 31
0.0
  0
LINE
  8
0
 62
     0
 10
221.696
 20
59.9324
 30
0.0
 11
221.696
 21
73.9316
 31
0.0
  0
LINE
  8
0
 62
     0
 10
202.646
 20
73.9316
 30
0.0
 11
216.645
 21
73.9316
 31
0.0
  0
LINE
  8
0
 62
     0
 10
216.645
 20
73.9316
 30
0.0
 11
216.645
 21
59.9324
 31
0.0
  0
LINE
  8
0
 62
     0
 10
216.645
 20
59.9324
 30
0.0
 11
202.646
 21
59.9324
 31
0.0
  0
LINE
  8
0
 62
     0
 10
202.646
 20
59.9324
 30
0.0
 11
202.646
 21
73.9316
 31
0.0
  0
LINE
  8
0
 62
     0
 10
183.596
 20
73.9316
 30
0.0
 11
197.595
 21
73.9316
 31
0.0
  0
LINE
  8
0
 62
     0
 10
197.595
 20
73.9316
 30
0.0
 11
197.595
 21
59.9324
 31
0.0
  0
LINE
  8
0
 62
     0
 10
197.595
 20
59.9324
 30
0.0
 11
183.596
 21
59.9324
 31
0.0
  0
LINE
  8
0
 62
     0
 10
183.596
 20
59.9324
 30
0.0
 11
183.596
 21
73.9316
 31
0.0
  0
LINE
  8
0
 62
     0
 10
164.546
 20
73.9316
 30
0.0
 11
178.545
 21
73.9316
 31
0.0
  0
LINE
  8
0
 62
     0
 10
178.545
 20
73.9316
 30
0.0
 11
178.545
 21
59.9324
 31
0.0
  0
LINE
  8
0
 62
     0
 10
178.545
 20
59.9324
 30
0.0
 11
164.546
 21
59.9324
 31
0.0
  0
LINE
  8
0
 62
     0
 10
164.546
 20
59.9324
 30
0.0
 11
164.546
 21
73.9316
 31
0.0
  0
LINE
  8
0
 62
     0
 10
145.496
 20
73.9316
 30
0.0
 11
159.495
 21
73.9316
 31
0.0
  0
LINE
  8
0
 62
     0
 10
159.495
 20
73.9316
 30
0.0
 11
159.495
 21
59.9324
 31
0.0
  0
LINE
  8
0
 62
     0
 10
159.495
 20
59.9324
 30
0.0
 11
145.496
 21
59.9324
 31
0.0
  0
LINE
  8
0
 62
     0
 10
145.496
 20
59.9324
 30
0.0
 11
145.496
 21
73.9316
 31
0.0
  0
LINE
  8
0
 62
     0
 10
126.446
 20
73.9316
 30
0.0
 11
140.445
 21
73.9316
 31
0.0
  0
LINE
  8
0
 62
     0
 10
140.445
 20
73.9316
 30
0.0
 11
140.445
 21
59.9324
 31
0.0
  0
LINE
  8
0
 62
     0
 10
140.445
 20
59.9324
 30
0.0
 11
126.446
 21
59.9324
 31
0.0
  0
LINE
  8
0
 62
     0
 10
126.446
 20
59.9324
 30
0.0
 11
126.446
 21
73.9316
 31
0.0
  0
LINE
  8
0
 62
     0
 10
107.396
 20
73.9316
 30
0.0
 11
121.395
 21
73.9316
 31
0.0
  0
LINE
  8
0
 62
     0
 10
121.395
 20
73.9316
 30
0.0
 11
121.395
 21
59.9324
 31
0.0
  0
LINE
  8
0
 62
     0
 10
121.395
 20
59.9324
 30
0.0
 11
107.396
 21
59.9324
 31
0.0
  0
LINE
  8
0
 62
     0
 10
107.396
 20
59.9324
 30
0.0
 11
107.396
 21
73.9316
 31
0.0
  0
LINE
  8
0
 62
     0
 10
88.3461
 20
73.9316
 30
0.0
 11
102.345
 21
73.9316
 31
0.0
  0
LINE
  8
0
 62
     0
 10
102.345
 20
73.9316
 30
0.0
 11
102.345
 21
59.9324
 31
0.0
  0
LINE
  8
0
 62
     0
 10
102.345
 20
59.9324
 30
0.0
 11
88.3461
 21
59.9324
 31
0.0
  0
LINE
  8
0
 62
     0
 10
88.3461
 20
59.9324
 30
0.0
 11
88.3461
 21
73.9316
 31
0.0
  0
LINE
  8
0
 62
     0
 10
69.2961
 20
73.9316
 30
0.0
 11
83.2954
 21
73.9316
 31
0.0
  0
LINE
  8
0
 62
     0
 10
83.2954
 20
73.9316
 30
0.0
 11
83.2954
 21
59.9324
 31
0.0
  0
LINE
  8
0
 62
     0
 10
83.2954
 20
59.9324
 30
0.0
 11
69.2961
 21
59.9324
 31
0.0
  0
LINE
  8
0
 62
     0
 10
69.2961
 20
59.9324
 30
0.0
 11
69.2961
 21
73.9316
 31
0.0
  0
LINE
  8
0
 62
     0
 10
50.2461
 20
73.9316
 30
0.0
 11
64.2454
 21
73.9316
 31
0.0
  0
LINE
  8
0
 62
     0
 10
64.2454
 20
73.9316
 30
0.0
 11
64.2454
 21
59.9324
 31
0.0
  0
LINE
  8
0
 62
     0
 10
64.2454
 20
59.9324
 30
0.0
 11
50.2461
 21
59.9324
 31
0.0
  0
LINE
  8
0
 62
     0
 10
50.2461
 20
59.9324
 30
0.0
 11
50.2461
 21
73.9316
 31
0.0
  0
LINE
  8
0
 62
     0
 10
31.196
 20
73.9316
 30
0.0
 11
45.1954
 21
73.9316
 31
0.0
  0
LINE
  8
0
 62
     0
 10
45.1954
 20
73.9316
 30
0.0
 11
45.1954
 21
59.9324
 31
0.0
  0
LINE
  8
0
 62
     0
 10
45.1954
 20
59.9324
 30
0.0
 11
31.196
 21
59.9324
 31
0.0
  0
LINE
  8
0
 62
     0
 10
31.196
 20
59.9324
 30
0.0
 11
31.196
 21
73.9316
 31
0.0
  0
LINE
  8
0
 62
     0
 10
7.38216
 20
73.9316
 30
0.0
 11
21.383
 21
73.9316
 31
0.0
  0
LINE
  8
0
 62
     0
 10
21.383
 20
73.9316
 30
0.0
 11
21.383
 21
59.9324
 31
0.0
  0
LINE
  8
0
 62
     0
 10
21.383
 20
59.9324
 30
0.0
 11
7.38216
 21
59.9324
 31
0.0
  0
LINE
  8
0
 62
     0
 10
7.38216
 20
59.9324
 30
0.0
 11
7.38216
 21
73.9316
 31
0.0
  0
LINE
  8
0
 62
     0
 10
259.796
 20
92.9816
 30
0.0
 11
259.796
 21
88.2826
 31
0.0
  0
LINE
  8
0
 62
     0
 10
259.796
 20
88.2826
 30
0.0
 11
258.27
 21
88.2826
 31
0.0
  0
LINE
  8
0
 62
     0
 10
258.27
 20
88.2826
 30
0.0
 11
258.27
 21
91.5127
 31
0.0
  0
LINE
  8
0
 62
     0
 10
258.27
 20
91.5127
 30
0.0
 11
256.545
 21
91.5127
 31
0.0
  0
LINE
  8
0
 62
     0
 10
256.545
 20
91.5127
 30
0.0
 11
256.545
 21
92.432
 31
0.0
  0
LINE
  8
0
 62
     0
 10
256.545
 20
92.432
 30
0.0
 11
253.245
 21
92.432
 31
0.0
  0
LINE
  8
0
 62
     0
 10
253.245
 20
92.432
 30
0.0
 11
253.245
 21
91.5127
 31
0.0
  0
LINE
  8
0
 62
     0
 10
253.245
 20
91.5127
 30
0.0
 11
251.521
 21
91.5127
 31
0.0
  0
LINE
  8
0
 62
     0
 10
251.521
 20
91.5127
 30
0.0
 11
251.521
 21
88.2826
 31
0.0
  0
LINE
  8
0
 62
     0
 10
251.521
 20
88.2826
 30
0.0
 11
250.696
 21
88.2826
 31
0.0
  0
LINE
  8
0
 62
     0
 10
250.696
 20
88.2826
 30
0.0
 11
250.696
 21
85.4826
 31
0.0
  0
LINE
  8
0
 62
     0
 10
250.696
 20
85.4826
 30
0.0
 11
251.521
 21
85.4826
 31
0.0
  0
LINE
  8
0
 62
     0
 10
251.521
 20
85.4826
 30
0.0
 11
251.521
 21
79.2124
 31
0.0
  0
LINE
  8
0
 62
     0
 10
251.521
 20
79.2124
 30
0.0
 11
253.245
 21
79.2124
 31
0.0
  0
LINE
  8
0
 62
     0
 10
253.245
 20
79.2124
 30
0.0
 11
253.245
 21
78.2327
 31
0.0
  0
LINE
  8
0
 62
     0
 10
253.245
 20
78.2327
 30
0.0
 11
256.545
 21
78.2327
 31
0.0
  0
LINE
  8
0
 62
     0
 10
256.545
 20
78.2327
 30
0.0
 11
256.545
 21
79.2124
 31
0.0
  0
LINE
  8
0
 62
     0
 10
256.545
 20
79.2124
 30
0.0
 11
258.27
 21
79.2124
 31
0.0
  0
LINE
  8
0
 62
     0
 10
258.27
 20
79.2124
 30
0.0
 11
258.27
 21
83.6828
 31
0.0
  0
LINE
  8
0
 62
     0
 10
258.27
 20
83.6828
 30
0.0
 11
259.796
 21
83.6828
 31
0.0
  0
LINE
  8
0
 62
     0
 10
259.796
 20
83.6828
 30
0.0
 11
259.796
 21
78.9824
 31
0.0
  0
LINE
  8
0
 62
     0
 10
259.796
 20
78.9824
 30
0.0
 11
273.795
 21
78.9824
 31
0.0
  0
LINE
  8
0
 62
     0
 10
273.795
 20
78.9824
 30
0.0
 11
273.795
 21
83.6828
 31
0.0
  0
LINE
  8
0
 62
     0
 10
273.795
 20
83.6828
 30
0.0
 11
275.321
 21
83.6828
 31
0.0
  0
LINE
  8
0
 62
     0
 10
275.321
 20
83.6828
 30
0.0
 11
275.321
 21
79.2124
 31
0.0
  0
LINE
  8
0
 62
     0
 10
275.321
 20
79.2124
 30
0.0
 11
277.045
 21
79.2124
 31
0.0
  0
LINE
  8
0
 62
     0
 10
277.045
 20
79.2124
 30
0.0
 11
277.045
 21
78.2327
 31
0.0
  0
LINE
  8
0
 62
     0
 10
277.045
 20
78.2327
 30
0.0
 11
280.345
 21
78.2327
 31
0.0
  0
LINE
  8
0
 62
     0
 10
280.345
 20
78.2327
 30
0.0
 11
280.345
 21
79.2124
 31
0.0
  0
LINE
  8
0
 62
     0
 10
280.345
 20
79.2124
 30
0.0
 11
282.071
 21
79.2124
 31
0.0
  0
LINE
  8
0
 62
     0
 10
282.071
 20
79.2124
 30
0.0
 11
282.071
 21
85.4826
 31
0.0
  0
LINE
  8
0
 62
     0
 10
282.071
 20
85.4826
 30
0.0
 11
282.896
 21
85.4826
 31
0.0
  0
LINE
  8
0
 62
     0
 10
282.896
 20
85.4826
 30
0.0
 11
282.896
 21
88.2826
 31
0.0
  0
LINE
  8
0
 62
     0
 10
282.896
 20
88.2826
 30
0.0
 11
282.071
 21
88.2826
 31
0.0
  0
LINE
  8
0
 62
     0
 10
282.071
 20
88.2826
 30
0.0
 11
282.071
 21
91.5127
 31
0.0
  0
LINE
  8
0
 62
     0
 10
282.071
 20
91.5127
 30
0.0
 11
280.345
 21
91.5127
 31
0.0
  0
LINE
  8
0
 62
     0
 10
280.345
 20
91.5127
 30
0.0
 11
280.345
 21
92.432
 31
0.0
  0
LINE
  8
0
 62
     0
 10
280.345
 20
92.432
 30
0.0
 11
277.045
 21
92.432
 31
0.0
  0
LINE
  8
0
 62
     0
 10
277.045
 20
92.432
 30
0.0
 11
277.045
 21
91.5127
 31
0.0
  0
LINE
  8
0
 62
     0
 10
277.045
 20
91.5127
 30
0.0
 11
275.321
 21
91.5127
 31
0.0
  0
LINE
  8
0
 62
     0
 10
275.321
 20
91.5127
 30
0.0
 11
275.321
 21
88.2826
 31
0.0
  0
LINE
  8
0
 62
     0
 10
275.321
 20
88.2826
 30
0.0
 11
273.795
 21
88.2826
 31
0.0
  0
LINE
  8
0
 62
     0
 10
273.795
 20
88.2826
 30
0.0
 11
273.795
 21
92.9816
 31
0.0
  0
LINE
  8
0
 62
     0
 10
273.795
 20
92.9816
 30
0.0
 11
259.796
 21
92.9816
 31
0.0
  0
LINE
  8
0
 62
     0
 10
231.221
 20
92.9816
 30
0.0
 11
245.22
 21
92.9816
 31
0.0
  0
LINE
  8
0
 62
     0
 10
245.22
 20
92.9816
 30
0.0
 11
245.22
 21
78.9824
 31
0.0
  0
LINE
  8
0
 62
     0
 10
245.22
 20
78.9824
 30
0.0
 11
231.221
 21
78.9824
 31
0.0
  0
LINE
  8
0
 62
     0
 10
231.221
 20
78.9824
 30
0.0
 11
231.221
 21
92.9816
 31
0.0
  0
LINE
  8
0
 62
     0
 10
212.171
 20
92.9816
 30
0.0
 11
226.17
 21
92.9816
 31
0.0
  0
LINE
  8
0
 62
     0
 10
226.17
 20
92.9816
 30
0.0
 11
226.17
 21
78.9824
 31
0.0
  0
LINE
  8
0
 62
     0
 10
226.17
 20
78.9824
 30
0.0
 11
212.171
 21
78.9824
 31
0.0
  0
LINE
  8
0
 62
     0
 10
212.171
 20
78.9824
 30
0.0
 11
212.171
 21
92.9816
 31
0.0
  0
LINE
  8
0
 62
     0
 10
193.121
 20
92.9816
 30
0.0
 11
207.12
 21
92.9816
 31
0.0
  0
LINE
  8
0
 62
     0
 10
207.12
 20
92.9816
 30
0.0
 11
207.12
 21
78.9824
 31
0.0
  0
LINE
  8
0
 62
     0
 10
207.12
 20
78.9824
 30
0.0
 11
193.121
 21
78.9824
 31
0.0
  0
LINE
  8
0
 62
     0
 10
193.121
 20
78.9824
 30
0.0
 11
193.121
 21
92.9816
 31
0.0
  0
LINE
  8
0
 62
     0
 10
174.071
 20
92.9816
 30
0.0
 11
188.07
 21
92.9816
 31
0.0
  0
LINE
  8
0
 62
     0
 10
188.07
 20
92.9816
 30
0.0
 11
188.07
 21
78.9824
 31
0.0
  0
LINE
  8
0
 62
     0
 10
188.07
 20
78.9824
 30
0.0
 11
174.071
 21
78.9824
 31
0.0
  0
LINE
  8
0
 62
     0
 10
174.071
 20
78.9824
 30
0.0
 11
174.071
 21
92.9816
 31
0.0
  0
LINE
  8
0
 62
     0
 10
155.021
 20
92.9816
 30
0.0
 11
169.02
 21
92.9816
 31
0.0
  0
LINE
  8
0
 62
     0
 10
169.02
 20
92.9816
 30
0.0
 11
169.02
 21
78.9824
 31
0.0
  0
LINE
  8
0
 62
     0
 10
169.02
 20
78.9824
 30
0.0
 11
155.021
 21
78.9824
 31
0.0
  0
LINE
  8
0
 62
     0
 10
155.021
 20
78.9824
 30
0.0
 11
155.021
 21
92.9816
 31
0.0
  0
LINE
  8
0
 62
     0
 10
135.971
 20
92.9816
 30
0.0
 11
149.97
 21
92.9816
 31
0.0
  0
LINE
  8
0
 62
     0
 10
149.97
 20
92.9816
 30
0.0
 11
149.97
 21
78.9824
 31
0.0
  0
LINE
  8
0
 62
     0
 10
149.97
 20
78.9824
 30
0.0
 11
135.971
 21
78.9824
 31
0.0
  0
LINE
  8
0
 62
     0
 10
135.971
 20
78.9824
 30
0.0
 11
135.971
 21
92.9816
 31
0.0
  0
LINE
  8
0
 62
     0
 10
116.92
 20
92.9816
 30
0.0
 11
130.92
 21
92.9816
 31
0.0
  0
LINE
  8
0
 62
     0
 10
130.92
 20
92.9816
 30
0.0
 11
130.92
 21
78.9824
 31
0.0
  0
LINE
  8
0
 62
     0
 10
130.92
 20
78.9824
 30
0.0
 11
116.92
 21
78.9824
 31
0.0
  0
LINE
  8
0
 62
     0
 10
116.92
 20
78.9824
 30
0.0
 11
116.92
 21
92.9816
 31
0.0
  0
LINE
  8
0
 62
     0
 10
97.8697
 20
92.9816
 30
0.0
 11
111.869
 21
92.9816
 31
0.0
  0
LINE
  8
0
 62
     0
 10
111.869
 20
92.9816
 30
0.0
 11
111.869
 21
78.9824
 31
0.0
  0
LINE
  8
0
 62
     0
 10
111.869
 20
78.9824
 30
0.0
 11
97.8697
 21
78.9824
 31
0.0
  0
LINE
  8
0
 62
     0
 10
97.8697
 20
78.9824
 30
0.0
 11
97.8697
 21
92.9816
 31
0.0
  0
LINE
  8
0
 62
     0
 10
78.8211
 20
92.9816
 30
0.0
 11
92.8204
 21
92.9816
 31
0.0
  0
LINE
  8
0
 62
     0
 10
92.8204
 20
92.9816
 30
0.0
 11
92.8204
 21
78.9824
 31
0.0
  0
LINE
  8
0
 62
     0
 10
92.8204
 20
78.9824
 30
0.0
 11
78.8211
 21
78.9824
 31
0.0
  0
LINE
  8
0
 62
     0
 10
78.8211
 20
78.9824
 30
0.0
 11
78.8211
 21
92.9816
 31
0.0
  0
LINE
  8
0
 62
     0
 10
59.7711
 20
92.9816
 30
0.0
 11
73.7704
 21
92.9816
 31
0.0
  0
LINE
  8
0
 62
     0
 10
73.7704
 20
92.9816
 30
0.0
 11
73.7704
 21
78.9824
 31
0.0
  0
LINE
  8
0
 62
     0
 10
73.7704
 20
78.9824
 30
0.0
 11
59.7711
 21
78.9824
 31
0.0
  0
LINE
  8
0
 62
     0
 10
59.7711
 20
78.9824
 30
0.0
 11
59.7711
 21
92.9816
 31
0.0
  0
LINE
  8
0
 62
     0
 10
40.7211
 20
92.9816
 30
0.0
 11
54.7204
 21
92.9816
 31
0.0
  0
LINE
  8
0
 62
     0
 10
54.7204
 20
92.9816
 30
0.0
 11
54.7204
 21
78.9824
 31
0.0
  0
LINE
  8
0
 62
     0
 10
54.7204
 20
78.9824
 30
0.0
 11
40.7211
 21
78.9824
 31
0.0
  0
LINE
  8
0
 62
     0
 10
40.7211
 20
78.9824
 30
0.0
 11
40.7211
 21
92.9816
 31
0.0
  0
LINE
  8
0
 62
     0
 10
21.671
 20
92.9816
 30
0.0
 11
35.6704
 21
92.9816
 31
0.0
  0
LINE
  8
0
 62
     0
 10
35.6704
 20
92.9816
 30
0.0
 11
35.6704
 21
78.9824
 31
0.0
  0
LINE
  8
0
 62
     0
 10
35.6704
 20
78.9824
 30
0.0
 11
21.671
 21
78.9824
 31
0.0
  0
LINE
  8
0
 62
     0
 10
21.671
 20
78.9824
 30
0.0
 11
21.671
 21
92.9816
 31
0.0
  0
LINE
  8
0
 62
     0
 10
2.62103
 20
92.9816
 30
0.0
 11
16.6205
 21
92.9816
 31
0.0
  0
LINE
  8
0
 62
     0
 10
16.6205
 20
92.9816
 30
0.0
 11
16.6205
 21
78.9824
 31
0.0
  0
LINE
  8
0
 62
     0
 10
16.6205
 20
78.9824
 30
0.0
 11
2.62103
 21
78.9824
 31
0.0
  0
LINE
  8
0
 62
     0
 10
2.62103
 20
78.9824
 30
0.0
 11
2.62103
 21
92.9816
 31
0.0
  0
LINE
  8
0
 62
     0
 10
269.321
 20
112.032
 30
0.0
 11
283.32
 21
112.032
 31
0.0
  0
LINE
  8
0
 62
     0
 10
283.32
 20
112.032
 30
0.0
 11
283.32
 21
98.0324
 31
0.0
  0
LINE
  8
0
 62
     0
 10
283.32
 20
98.0324
 30
0.0
 11
269.321
 21
98.0324
 31
0.0
  0
LINE
  8
0
 62
     0
 10
269.321
 20
98.0324
 30
0.0
 11
269.321
 21
112.032
 31
0.0
  0
LINE
  8
0
 62
     0
 10
250.271
 20
112.032
 30
0.0
 11
264.27
 21
112.032
 31
0.0
  0
LINE
  8
0
 62
     0
 10
264.27
 20
112.032
 30
0.0
 11
264.27
 21
98.0324
 31
0.0
  0
LINE
  8
0
 62
     0
 10
264.27
 20
98.0324
 30
0.0
 11
250.271
 21
98.0324
 31
0.0
  0
LINE
  8
0
 62
     0
 10
250.271
 20
98.0324
 30
0.0
 11
250.271
 21
112.032
 31
0.0
  0
LINE
  8
0
 62
     0
 10
231.221
 20
112.032
 30
0.0
 11
245.22
 21
112.032
 31
0.0
  0
LINE
  8
0
 62
     0
 10
245.22
 20
112.032
 30
0.0
 11
245.22
 21
98.0324
 31
0.0
  0
LINE
  8
0
 62
     0
 10
245.22
 20
98.0324
 30
0.0
 11
231.221
 21
98.0324
 31
0.0
  0
LINE
  8
0
 62
     0
 10
231.221
 20
98.0324
 30
0.0
 11
231.221
 21
112.032
 31
0.0
  0
LINE
  8
0
 62
     0
 10
212.171
 20
112.032
 30
0.0
 11
226.17
 21
112.032
 31
0.0
  0
LINE
  8
0
 62
     0
 10
226.17
 20
112.032
 30
0.0
 11
226.17
 21
98.0324
 31
0.0
  0
LINE
  8
0
 62
     0
 10
226.17
 20
98.0324
 30
0.0
 11
212.171
 21
98.0324
 31
0.0
  0
LINE
  8
0
 62
     0
 10
212.171
 20
98.0324
 30
0.0
 11
212.171
 21
112.032
 31
0.0
  0
LINE
  8
0
 62
     0
 10
193.121
 20
112.032
 30
0.0
 11
207.12
 21
112.032
 31
0.0
  0
LINE
  8
0
 62
     0
 10
207.12
 20
112.032
 30
0.0
 11
207.12
 21
98.0324
 31
0.0
  0
LINE
  8
0
 62
     0
 10
207.12
 20
98.0324
 30
0.0
 11
193.121
 21
98.0324
 31
0.0
  0
LINE
  8
0
 62
     0
 10
193.121
 20
98.0324
 30
0.0
 11
193.121
 21
112.032
 31
0.0
  0
LINE
  8
0
 62
     0
 10
174.071
 20
112.032
 30
0.0
 11
188.07
 21
112.032
 31
0.0
  0
LINE
  8
0
 62
     0
 10
188.07
 20
112.032
 30
0.0
 11
188.07
 21
98.0324
 31
0.0
  0
LINE
  8
0
 62
     0
 10
188.07
 20
98.0324
 30
0.0
 11
174.071
 21
98.0324
 31
0.0
  0
LINE
  8
0
 62
     0
 10
174.071
 20
98.0324
 30
0.0
 11
174.071
 21
112.032
 31
0.0
  0
LINE
  8
0
 62
     0
 10
155.021
 20
112.032
 30
0.0
 11
169.02
 21
112.032
 31
0.0
  0
LINE
  8
0
 62
     0
 10
169.02
 20
112.032
 30
0.0
 11
169.02
 21
98.0324
 31
0.0
  0
LINE
  8
0
 62
     0
 10
169.02
 20
98.0324
 30
0.0
 11
155.021
 21
98.0324
 31
0.0
  0
LINE
  8
0
 62
     0
 10
155.021
 20
98.0324
 30
0.0
 11
155.021
 21
112.032
 31
0.0
  0
LINE
  8
0
 62
     0
 10
135.971
 20
112.032
 30
0.0
 11
149.97
 21
112.032
 31
0.0
  0
LINE
  8
0
 62
     0
 10
149.97
 20
112.032
 30
0.0
 11
149.97
 21
98.0324
 31
0.0
  0
LINE
  8
0
 62
     0
 10
149.97
 20
98.0324
 30
0.0
 11
135.971
 21
98.0324
 31
0.0
  0
LINE
  8
0
 62
     0
 10
135.971
 20
98.0324
 30
0.0
 11
135.971
 21
112.032
 31
0.0
  0
LINE
  8
0
 62
     0
 10
116.92
 20
112.032
 30
0.0
 11
130.92
 21
112.032
 31
0.0
  0
LINE
  8
0
 62
     0
 10
130.92
 20
112.032
 30
0.0
 11
130.92
 21
98.0324
 31
0.0
  0
LINE
  8
0
 62
     0
 10
130.92
 20
98.0324
 30
0.0
 11
116.92
 21
98.0324
 31
0.0
  0
LINE
  8
0
 62
     0
 10
116.92
 20
98.0324
 30
0.0
 11
116.92
 21
112.032
 31
0.0
  0
LINE
  8
0
 62
     0
 10
97.8697
 20
112.032
 30
0.0
 11
111.869
 21
112.032
 31
0.0
  0
LINE
  8
0
 62
     0
 10
111.869
 20
112.032
 30
0.0
 11
111.869
 21
98.0324
 31
0.0
  0
LINE
  8
0
 62
     0
 10
111.869
 20
98.0324
 30
0.0
 11
97.8697
 21
98.0324
 31
0.0
  0
LINE
  8
0
 62
     0
 10
97.8697
 20
98.0324
 30
0.0
 11
97.8697
 21
112.032
 31
0.0
  0
LINE
  8
0
 62
     0
 10
78.8211
 20
112.032
 30
0.0
 11
92.8204
 21
112.032
 31
0.0
  0
LINE
  8
0
 62
     0
 10
92.8204
 20
112.032
 30
0.0
 11
92.8204
 21
98.0324
 31
0.0
  0
LINE
  8
0
 62
     0
 10
92.8204
 20
98.0324
 30
0.0
 11
78.8211
 21
98.0324
 31
0.0
  0
LINE
  8
0
 62
     0
 10
78.8211
 20
98.0324
 30
0.0
 11
78.8211
 21
112.032
 31
0.0
  0
LINE
  8
0
 62
     0
 10
59.7711
 20
112.032
 30
0.0
 11
73.7704
 21
112.032
 31
0.0
  0
LINE
  8
0
 62
     0
 10
73.7704
 20
112.032
 30
0.0
 11
73.7704
 21
98.0324
 31
0.0
  0
LINE
  8
0
 62
     0
 10
73.7704
 20
98.0324
 30
0.0
 11
59.7711
 21
98.0324
 31
0.0
  0
LINE
  8
0
 62
     0
 10
59.7711
 20
98.0324
 30
0.0
 11
59.7711
 21
112.032
 31
0.0
  0
LINE
  8
0
 62
     0
 10
40.7211
 20
112.032
 30
0.0
 11
54.7204
 21
112.032
 31
0.0
  0
LINE
  8
0
 62
     0
 10
54.7204
 20
112.032
 30
0.0
 11
54.7204
 21
98.0324
 31
0.0
  0
LINE
  8
0
 62
     0
 10
54.7204
 20
98.0324
 30
0.0
 11
40.7211
 21
98.0324
 31
0.0
  0
LINE
  8
0
 62
     0
 10
40.7211
 20
98.0324
 30
0.0
 11
40.7211
 21
112.032
 31
0.0
  0
LINE
  8
0
 62
     0
 10
21.671
 20
112.032
 30
0.0
 11
35.6704
 21
112.032
 31
0.0
  0
LINE
  8
0
 62
     0
 10
35.6704
 20
112.032
 30
0.0
 11
35.6704
 21
98.0324
 31
0.0
  0
LINE
  8
0
 62
     0
 10
35.6704
 20
98.0324
 30
0.0
 11
21.671
 21
98.0324
 31
0.0
  0
LINE
  8
0
 62
     0
 10
21.671
 20
98.0324
 30
0.0
 11
21.671
 21
112.032
 31
0.0
  0
LINE
  8
0
 62
     0
 10
2.62103
 20
112.032
 30
0.0
 11
16.6205
 21
112.032
 31
0.0
  0
LINE
  8
0
 62
     0
 10
16.6205
 20
112.032
 30
0.0
 11
16.6205
 21
98.0324
 31
0.0
  0
LINE
  8
0
 62
     0
 10
16.6205
 20
98.0324
 30
0.0
 11
2.62103
 21
98.0324
 31
0.0
  0
LINE
  8
0
 62
     0
 10
2.62103
 20
98.0324
 30
0.0
 11
2.62103
 21
112.032
 31
0.0
  0
ENDSEC
  0
EOF
